<?xml version="1.0" encoding="utf-8"?>
<!-- Generator: Adobe Illustrator 16.0.0, SVG Export Plug-In . SVG Version: 6.00 Build 0)  -->
<!DOCTYPE svg PUBLIC "-//W3C//DTD SVG 1.1//EN" "http://www.w3.org/Graphics/SVG/1.1/DTD/svg11.dtd">
<svg version="1.1" id="Layer_1" xmlns="http://www.w3.org/2000/svg" xmlns:xlink="http://www.w3.org/1999/xlink" x="0px" y="0px"
	 width="612px" height="792px" viewBox="0 0 612 792" enable-background="new 0 0 612 792" xml:space="preserve">
<rect x="9.78" y="10.366" fill="#FFFFFF" stroke="#000000" stroke-miterlimit="10" width="593.902" height="773.171"/>
<path fill="#FFFFFF" d="M257.639,171.916c-57.518,0-115.036,0-172.554,0c0-46.971,0-93.942,0-140.914c57.518,0,115.036,0,172.554,0
	C257.639,77.974,257.639,124.945,257.639,171.916z M86.094,92.588c0,25.127,0,50.083,0,75.247c1.466,0,2.877,0,4.289,0
	c7.921,0,15.841-0.009,23.762,0.018c0.715,0.002,0.881-0.192,0.879-0.891c-0.023-10.546-0.016-21.092-0.015-31.638
	c0-1.131,0-2.263,0-3.482c20.429-0.351,40.736-0.355,61.096,0c0.029,0.458,0.066,0.799,0.07,1.141
	c0.017,1.695,0.035,3.391,0.036,5.086c0.003,9.593,0,19.187,0.002,28.78c0,0.998,0.006,0.999,0.995,0.999
	c9.013,0,18.025-0.001,27.038-0.002c0.935,0,0.937-0.003,0.938-0.943c0.009-11.498,0.013-22.996,0.038-34.494
	c0.001-0.659,0.119-1.33,0.274-1.973c0.279-1.158,0.97-2.052,1.996-2.65c0.736-0.43,1.486-0.315,2.326-0.157
	c1.251,0.235,1.958,1.002,2.53,1.958c1.071,1.791,1.253,3.854,1.502,5.852c0.273,2.191,0.297,4.415,0.414,6.625
	c0.111,2.103,0.258,4.206,0.288,6.311c0.029,2.097,0.338,4.145,0.726,6.198c0.577,3.056,1.59,5.941,3.171,8.615
	c1.312,2.219,3.188,3.893,5.329,5.286c3.247,2.114,6.929,2.826,10.688,3.079c2.125,0.143,4.277-0.113,6.417-0.197
	c2.547-0.1,4.928-0.857,7.208-1.932c0.991-0.467,2.037-0.951,2.826-1.679c1.137-1.049,2.479-1.929,3.223-3.374
	c0.716-1.39,1.605-2.703,2.195-4.141c1.114-2.716,1.02-5.642,1.092-8.505c0.084-3.387-0.014-6.778-0.068-10.167
	c-0.003-0.192-0.312-0.525-0.503-0.543c-1.385-0.133-2.778-0.284-4.167-0.275c-3.598,0.023-7.196,0.143-10.794,0.181
	c-0.687,0.007-0.858,0.247-0.855,0.893c0.013,3.948-0.036,7.897-0.01,11.846c0.017,2.532-1.661,3.764-4.004,3.791
	c-0.843,0.009-1.711-0.318-2.53-0.602c-1.129-0.392-2.097-1.885-2.095-3.459c0.021-20.023,0.015-40.046,0.015-60.069
	c0-0.285,0-0.571,0-0.731C183.583,92.588,134.873,92.588,86.094,92.588z M158.769,81.983c23.995,0,47.99,0,71.985,0
	c1.66,0,1.755-0.007,1.646-1.714c-0.14-2.191-0.36-4.386-0.714-6.551c-0.36-2.2-0.83-4.393-1.429-6.54
	c-0.522-1.875-1.163-3.743-1.983-5.505c-0.979-2.102-2.169-4.109-3.338-6.116c-0.774-1.328-1.609-2.631-2.525-3.864
	c-3.278-4.414-7.144-8.237-11.667-11.381c-4.213-2.929-8.777-5.139-13.669-6.677c-0.907-0.285-1.808-0.595-2.729-0.821
	c-0.99-0.242-2-0.409-3.004-0.587c-1.404-0.248-2.804-0.562-4.22-0.688c-1.452-0.129-2.922-0.071-4.384-0.087
	c-5.457-0.063-10.913-0.175-16.37-0.173c-9.197,0.004-18.394,0.059-27.59,0.14c-3.246,0.028-6.491,0.184-9.735,0.307
	c-0.476,0.018-0.943,0.196-1.418,0.277c-0.897,0.154-1.811,0.237-2.694,0.449c-1.231,0.295-2.455,0.635-3.655,1.039
	c-1.883,0.634-3.77,1.269-5.602,2.033c-1.333,0.556-2.604,1.28-3.861,2.001c-1.693,0.972-3.399,1.937-5.007,3.04
	c-6.115,4.191-10.898,9.642-14.622,16.005c-1.632,2.789-2.932,5.747-4,8.833c-0.899,2.597-1.426,5.255-2.07,7.896
	c-0.307,1.261-0.395,2.581-0.524,3.879c-0.126,1.268-0.192,2.542-0.259,3.815c-0.052,0.988-0.035,0.989,0.968,0.989
	C110.454,81.983,134.611,81.983,158.769,81.983z"/>
<path fill-rule="evenodd" clip-rule="evenodd" fill="#E12228" d="M86.094,92.588c48.778,0,97.489,0,146.318,0
	c0,0.16,0,0.446,0,0.731c0,20.023,0.007,40.046-0.015,60.069c-0.001,1.575,0.966,3.068,2.095,3.459
	c0.818,0.284,1.687,0.611,2.53,0.602c2.343-0.026,4.021-1.259,4.004-3.791c-0.026-3.948,0.023-7.897,0.01-11.846
	c-0.002-0.646,0.168-0.886,0.855-0.893c3.598-0.039,7.196-0.158,10.794-0.181c1.389-0.009,2.781,0.142,4.167,0.275
	c0.19,0.018,0.5,0.352,0.503,0.543c0.054,3.389,0.152,6.78,0.068,10.167c-0.072,2.863,0.022,5.789-1.092,8.505
	c-0.59,1.438-1.479,2.751-2.195,4.141c-0.744,1.444-2.086,2.325-3.223,3.374c-0.789,0.728-1.835,1.211-2.826,1.679
	c-2.28,1.075-4.66,1.832-7.208,1.932c-2.14,0.084-4.292,0.34-6.417,0.197c-3.759-0.253-7.441-0.965-10.688-3.079
	c-2.14-1.394-4.016-3.067-5.329-5.286c-1.581-2.674-2.594-5.559-3.171-8.615c-0.388-2.053-0.696-4.101-0.726-6.198
	c-0.03-2.104-0.176-4.208-0.288-6.311c-0.117-2.21-0.14-4.434-0.414-6.625c-0.249-1.998-0.431-4.062-1.502-5.852
	c-0.571-0.956-1.278-1.723-2.53-1.958c-0.84-0.158-1.59-0.273-2.326,0.157c-1.026,0.598-1.717,1.493-1.996,2.65
	c-0.155,0.643-0.273,1.314-0.274,1.973c-0.025,11.498-0.029,22.996-0.038,34.494c-0.001,0.94-0.003,0.943-0.938,0.943
	c-9.013,0.001-18.025,0.001-27.038,0.002c-0.989,0-0.995,0-0.995-0.999c-0.001-9.593,0.001-19.187-0.002-28.78
	c0-1.696-0.019-3.391-0.036-5.086c-0.003-0.341-0.041-0.683-0.07-1.141c-20.359-0.355-40.667-0.351-61.096,0c0,1.22,0,2.351,0,3.482
	c0,10.546-0.008,21.092,0.015,31.638c0.002,0.699-0.164,0.893-0.879,0.891c-7.921-0.027-15.841-0.018-23.762-0.018
	c-1.411,0-2.823,0-4.289,0C86.094,142.671,86.094,117.715,86.094,92.588z"/>
<path fill-rule="evenodd" clip-rule="evenodd" fill="#1B3F71" d="M158.769,81.983c-24.157,0-48.315,0-72.473,0
	c-1.003,0-1.021-0.001-0.968-0.989c0.067-1.272,0.133-2.547,0.259-3.815c0.129-1.298,0.217-2.618,0.524-3.879
	c0.644-2.641,1.171-5.299,2.07-7.896c1.069-3.087,2.369-6.045,4-8.833c3.724-6.363,8.507-11.814,14.622-16.005
	c1.608-1.103,3.314-2.067,5.007-3.04c1.257-0.722,2.527-1.445,3.861-2.001c1.832-0.764,3.719-1.399,5.602-2.033
	c1.2-0.404,2.424-0.744,3.655-1.039c0.883-0.212,1.796-0.294,2.694-0.449c0.475-0.081,0.942-0.259,1.418-0.277
	c3.244-0.124,6.49-0.279,9.735-0.307c9.197-0.081,18.394-0.136,27.59-0.14c5.457-0.002,10.913,0.11,16.37,0.173
	c1.462,0.017,2.932-0.042,4.384,0.087c1.416,0.126,2.816,0.439,4.22,0.688c1.004,0.178,2.014,0.345,3.004,0.587
	c0.921,0.226,1.823,0.536,2.729,0.821c4.892,1.538,9.456,3.749,13.669,6.677c4.523,3.145,8.389,6.968,11.667,11.381
	c0.916,1.233,1.751,2.536,2.525,3.864c1.169,2.007,2.359,4.015,3.338,6.116c0.821,1.762,1.461,3.63,1.983,5.505
	c0.599,2.147,1.069,4.34,1.429,6.54c0.354,2.165,0.574,4.36,0.714,6.551c0.109,1.707,0.015,1.714-1.646,1.714
	C206.759,81.983,182.764,81.983,158.769,81.983z M210.574,45.373c-0.762,0.471-1.369,0.763-1.879,1.175
	c-2.565,2.072-5.148,4.115-8.009,5.778c-0.452,0.263-0.767,0.243-1.175-0.06c-2.049-1.522-4.106-3.035-6.18-4.524
	c-1.086-0.779-2.211-1.503-3.319-2.252c-0.046,0.416,0.028,0.725,0.125,1.026c0.954,2.973,1.907,5.945,2.872,8.914
	c0.143,0.439,0.277,0.909,0.54,1.274c0.37,0.516,0.103,0.839-0.237,1.115c-0.787,0.638-1.606,1.236-2.419,1.84
	c-1.13,0.839-2.262,1.676-3.403,2.501c-0.978,0.707-1.978,1.383-2.948,2.1c-0.333,0.246-0.604,0.574-0.903,0.865
	c0.035,0.056,0.069,0.111,0.104,0.167c4.168,0,8.337,0,12.378,0c0.284,0.695,0.564,1.268,0.752,1.87
	c0.331,1.06,0.569,2.149,0.91,3.205c0.602,1.867,1.237,3.724,1.891,5.574c0.141,0.399,0.417,0.75,0.631,1.124
	c0.067-0.028,0.134-0.056,0.201-0.084c0.062-0.286,0.094-0.584,0.193-0.856c0.336-0.919,0.746-1.813,1.039-2.745
	c0.739-2.354,1.408-4.731,2.157-7.082c0.151-0.475,0.434-0.908,1.134-0.908c2.922,0,5.844-0.067,8.767-0.103
	c0.963-0.012,1.927-0.002,2.89-0.002c0.033-0.069,0.067-0.139,0.101-0.208c-0.591-0.532-1.143-1.119-1.781-1.585
	c-2.413-1.76-4.849-3.489-7.288-5.211c-0.853-0.602-0.951-0.858-0.598-1.863c0.527-1.499,1.043-3.001,1.557-4.504
	c0.599-1.753,1.204-3.504,1.776-5.267C210.559,46.314,210.524,45.935,210.574,45.373z M169.161,45.576
	c-0.07-0.032-0.14-0.065-0.209-0.097c-0.285,0.22-0.567,0.444-0.855,0.659c-2.511,1.873-5.019,3.75-7.538,5.611
	c-0.387,0.286-0.805,0.556-1.25,0.724c-0.253,0.095-0.667,0.075-0.878-0.075c-2.871-2.035-5.717-4.104-8.575-6.157
	c-0.392-0.282-0.815-0.521-1.224-0.779c0.423,1.848,0.944,3.558,1.48,5.264c0.288,0.917,0.607,1.823,0.902,2.737
	c0.304,0.941,0.54,1.907,0.903,2.824c0.458,1.156,0.433,1.296-0.545,2.001c-2.254,1.625-4.487,3.279-6.729,4.919
	c-0.354,0.259-0.715,0.51-1.07,0.767c-0.401,0.29-0.799,0.583-1.238,0.904c0.487,0.583,1.075,0.683,1.636,0.672
	c1.553-0.029,3.104-0.129,4.656-0.197c1.804-0.079,3.609-0.152,5.413-0.232c0.547-0.024,0.869,0.244,1.029,0.746
	c0.34,1.069,0.682,2.138,1.023,3.207c0.595,1.87,1.183,3.743,1.79,5.609c0.186,0.571,0.394,1.139,0.65,1.68
	c0.124,0.262,0.382,0.46,0.636,0.752c0.069-0.37,0.089-0.602,0.158-0.818c0.285-0.897,0.589-1.788,0.876-2.684
	c0.749-2.337,1.49-4.677,2.242-7.014c0.07-0.219,0.195-0.42,0.281-0.636c0.204-0.51,0.536-0.709,1.121-0.704
	c3.576,0.03,7.153,0.015,10.729,0.015c0.26,0,0.521,0,0.78,0c0.019-0.065,0.038-0.131,0.056-0.197
	c-0.454-0.423-0.871-0.896-1.368-1.26c-2.447-1.795-4.901-3.58-7.381-5.329c-1.081-0.762-1.206-0.832-0.822-2.056
	c1.026-3.265,2.108-6.513,3.152-9.773C169.102,46.317,169.107,45.939,169.161,45.576z M117.45,77.035
	c0.067-0.009,0.134-0.018,0.201-0.026c0.162-0.387,0.353-0.764,0.48-1.162c1.056-3.275,2.106-6.553,3.143-9.835
	c0.196-0.621,0.64-0.884,1.224-0.978c0.273-0.044,0.557-0.048,0.834-0.032c2.708,0.157,5.415,0.343,8.125,0.472
	c0.859,0.041,1.725-0.065,2.588-0.104c0.042-0.101,0.084-0.201,0.126-0.302c-0.218-0.165-0.438-0.329-0.654-0.496
	c-1.306-1.003-2.606-2.014-3.917-3.01c-1.624-1.235-3.257-2.458-4.883-3.69c-0.356-0.27-0.539-0.554-0.354-1.062
	c0.436-1.198,0.799-2.423,1.181-3.641c0.52-1.659,1.026-3.323,1.544-4.983c0.25-0.799,0.515-1.593,0.772-2.39
	c-0.06-0.06-0.119-0.121-0.179-0.181c-1.245,0.831-2.503,1.642-3.73,2.499c-1.996,1.393-3.97,2.817-5.954,4.227
	c-0.382,0.272-0.723,0.27-1.124-0.033c-1.664-1.255-3.343-2.49-5.032-3.712c-1.153-0.833-2.344-1.614-3.489-2.459
	c-0.329-0.243-0.566-0.717-1.022-0.399c-0.1,0.069,0.09,0.593,0.183,0.896c0.602,1.951,1.198,3.904,1.826,5.847
	c0.461,1.427,0.965,2.839,1.453,4.257c0.165,0.479,0.157,0.904-0.302,1.237c-1.341,0.972-2.666,1.967-4.016,2.927
	c-1.517,1.078-3.065,2.112-4.577,3.198c-0.384,0.276-0.679,0.676-1.014,1.019c0.04,0.053,0.08,0.107,0.121,0.16
	c0.253,0,0.506,0,0.759,0c3.669,0,7.338,0.017,11.007-0.016c0.652-0.006,0.887,0.249,1.035,0.827c0.26,1.017,0.574,2.021,0.897,3.02
	c0.762,2.353,1.539,4.701,2.323,7.046C117.129,76.461,117.307,76.742,117.45,77.035z"/>
<path fill-rule="evenodd" clip-rule="evenodd" fill="#FFFFFF" d="M210.574,45.373c-0.049,0.562-0.015,0.942-0.123,1.275
	c-0.572,1.762-1.177,3.514-1.776,5.267c-0.514,1.503-1.03,3.006-1.557,4.504c-0.354,1.005-0.255,1.261,0.598,1.863
	c2.439,1.723,4.875,3.452,7.288,5.211c0.639,0.466,1.19,1.053,1.781,1.585c-0.034,0.069-0.067,0.139-0.101,0.208
	c-0.963,0-1.927-0.01-2.89,0.002c-2.922,0.036-5.844,0.103-8.767,0.103c-0.7,0-0.982,0.434-1.134,0.908
	c-0.749,2.351-1.418,4.727-2.157,7.082c-0.292,0.932-0.702,1.826-1.039,2.745c-0.1,0.272-0.131,0.57-0.193,0.856
	c-0.067,0.028-0.134,0.056-0.201,0.084c-0.214-0.374-0.49-0.725-0.631-1.124c-0.654-1.85-1.29-3.707-1.891-5.574
	c-0.34-1.056-0.579-2.146-0.91-3.205c-0.188-0.603-0.469-1.175-0.752-1.87c-4.042,0-8.21,0-12.378,0
	c-0.035-0.056-0.069-0.111-0.104-0.167c0.299-0.291,0.57-0.619,0.903-0.865c0.97-0.717,1.97-1.393,2.948-2.1
	c1.141-0.825,2.272-1.662,3.403-2.501c0.813-0.604,1.633-1.202,2.419-1.84c0.34-0.276,0.607-0.6,0.237-1.115
	c-0.263-0.366-0.397-0.835-0.54-1.274c-0.965-2.969-1.918-5.941-2.872-8.914c-0.097-0.301-0.17-0.61-0.125-1.026
	c1.108,0.749,2.233,1.473,3.319,2.252c2.074,1.489,4.13,3.001,6.18,4.524c0.408,0.303,0.723,0.323,1.175,0.06
	c2.861-1.664,5.444-3.707,8.009-5.778C209.205,46.136,209.812,45.844,210.574,45.373z"/>
<path fill-rule="evenodd" clip-rule="evenodd" fill="#FFFFFF" d="M169.161,45.576c-0.054,0.363-0.059,0.741-0.169,1.086
	c-1.044,3.26-2.126,6.508-3.152,9.773c-0.384,1.224-0.259,1.294,0.822,2.056c2.48,1.749,4.934,3.534,7.381,5.329
	c0.497,0.365,0.914,0.837,1.368,1.26c-0.019,0.065-0.037,0.131-0.056,0.197c-0.26,0-0.52,0-0.78,0
	c-3.577,0-7.153,0.015-10.729-0.015c-0.585-0.005-0.917,0.194-1.121,0.704c-0.086,0.215-0.211,0.417-0.281,0.636
	c-0.751,2.337-1.493,4.676-2.242,7.014c-0.287,0.896-0.592,1.787-0.876,2.684c-0.069,0.216-0.088,0.448-0.158,0.818
	c-0.253-0.292-0.512-0.49-0.636-0.752c-0.256-0.542-0.464-1.109-0.65-1.68c-0.607-1.866-1.194-3.739-1.79-5.609
	c-0.341-1.069-0.683-2.138-1.023-3.207c-0.16-0.502-0.482-0.77-1.029-0.746c-1.804,0.08-3.609,0.153-5.413,0.232
	c-1.552,0.068-3.103,0.168-4.656,0.197c-0.561,0.01-1.148-0.09-1.636-0.672c0.439-0.321,0.837-0.614,1.238-0.904
	c0.355-0.257,0.716-0.508,1.07-0.767c2.243-1.641,4.476-3.294,6.729-4.919c0.978-0.705,1.003-0.845,0.545-2.001
	c-0.363-0.917-0.6-1.883-0.903-2.824c-0.294-0.914-0.614-1.82-0.902-2.737c-0.536-1.706-1.057-3.416-1.48-5.264
	c0.409,0.258,0.832,0.497,1.224,0.779c2.858,2.053,5.704,4.122,8.575,6.157c0.212,0.15,0.625,0.17,0.878,0.075
	c0.445-0.168,0.863-0.438,1.25-0.724c2.519-1.861,5.027-3.738,7.538-5.611c0.288-0.215,0.57-0.439,0.855-0.659
	C169.021,45.511,169.091,45.544,169.161,45.576z"/>
<path fill-rule="evenodd" clip-rule="evenodd" fill="#FFFFFF" d="M117.45,77.035c-0.143-0.293-0.321-0.574-0.423-0.88
	c-0.784-2.346-1.561-4.693-2.323-7.046c-0.324-0.999-0.637-2.003-0.897-3.02c-0.148-0.578-0.383-0.833-1.035-0.827
	c-3.669,0.033-7.338,0.016-11.007,0.016c-0.253,0-0.506,0-0.759,0c-0.041-0.053-0.081-0.107-0.121-0.16
	c0.335-0.343,0.63-0.743,1.014-1.019c1.511-1.086,3.06-2.121,4.577-3.198c1.35-0.959,2.675-1.955,4.016-2.927
	c0.459-0.333,0.467-0.758,0.302-1.237c-0.487-1.418-0.992-2.831-1.453-4.257c-0.628-1.943-1.225-3.896-1.826-5.847
	c-0.093-0.303-0.283-0.827-0.183-0.896c0.456-0.317,0.693,0.157,1.022,0.399c1.145,0.845,2.336,1.625,3.489,2.459
	c1.689,1.222,3.368,2.457,5.032,3.712c0.401,0.303,0.742,0.305,1.124,0.033c1.984-1.41,3.958-2.834,5.954-4.227
	c1.227-0.857,2.485-1.667,3.73-2.499c0.06,0.061,0.119,0.121,0.179,0.181c-0.258,0.796-0.523,1.591-0.772,2.39
	c-0.519,1.66-1.024,3.324-1.544,4.983c-0.381,1.218-0.745,2.443-1.181,3.641c-0.185,0.508-0.002,0.792,0.354,1.062
	c1.626,1.231,3.259,2.455,4.883,3.69c1.311,0.997,2.611,2.007,3.917,3.01c0.217,0.167,0.436,0.331,0.654,0.496
	c-0.042,0.101-0.084,0.201-0.126,0.302c-0.863,0.039-1.729,0.146-2.588,0.104c-2.709-0.128-5.417-0.315-8.125-0.472
	c-0.277-0.016-0.561-0.012-0.834,0.032c-0.583,0.094-1.027,0.357-1.224,0.978c-1.037,3.282-2.086,6.56-3.143,9.835
	c-0.128,0.397-0.318,0.775-0.48,1.162C117.583,77.018,117.517,77.026,117.45,77.035z"/>
<g id="KeW6EO_1_">
	
		<image overflow="visible" enable-background="new    " width="1248" height="1018" id="KeW6EO" xlink:href="../../../../Desktop/E802453DAF70281D.jpg"  transform="matrix(0.1434 0 0 0.1434 -7975.498 -7869.0039)">
	</image>
</g>
<rect x="217.822" y="520.832" fill="#FFFFFF" stroke="#454545" stroke-miterlimit="10" width="2.293" height="1.146"/>
<g>
	<polygon fill="#E12228" points="259.107,137.075 240.308,137.075 236.927,98.095 262.488,98.095 	"/>
	<polygon fill="#FFFFFF" points="243.604,112.702 244.652,129.908 254.533,129.908 255.582,112.702 	"/>
</g>
<g>
	<text transform="matrix(1 0 0 1 285.3252 76.7334)" font-family="'HelveticaNeue-CondensedBold'" font-size="29.5126">Republican Debate </text>
	<text transform="matrix(1 0 0 1 282.1772 137.9521)" font-family="'HelveticaNeue-Thin'" font-size="77.3498">BINGO</text>
	<text transform="matrix(1 0 0 1 283.2979 163.3418)" font-family="'HelveticaNeue-Thin'" font-size="15">(and drinking game if you’re into that)</text>
</g>
<text transform="matrix(1 0 0 1 80.8535 204.5117)" font-family="'HelveticaNeue-CondensedBlack'" font-size="24">Mark em off &amp; Drink when you get a match! </text>
<rect x="35.229" y="227.096" fill="#FFFFFF" stroke="#454545" stroke-width="2" stroke-miterlimit="10" width="108.231" height="108.231"/>
<rect x="143.459" y="227.096" fill="#FFFFFF" stroke="#454545" stroke-width="2" stroke-miterlimit="10" width="108.23" height="108.231"/>
<rect x="251.689" y="227.096" fill="#FFFFFF" stroke="#454545" stroke-width="2" stroke-miterlimit="10" width="108.232" height="108.231"/>
<rect x="359.92" y="227.096" fill="#FFFFFF" stroke="#454545" stroke-width="2" stroke-miterlimit="10" width="108.231" height="108.231"/>
<rect x="468.15" y="227.096" fill="#FFFFFF" stroke="#454545" stroke-width="2" stroke-miterlimit="10" width="108.23" height="108.231"/>
<rect x="35.229" y="336.014" fill="#FFFFFF" stroke="#454545" stroke-width="2" stroke-miterlimit="10" width="108.231" height="108.231"/>
<rect x="143.459" y="336.014" fill="#FFFFFF" stroke="#454545" stroke-width="2" stroke-miterlimit="10" width="108.23" height="108.231"/>
<rect x="251.689" y="336.014" fill="#FFFFFF" stroke="#454545" stroke-width="2" stroke-miterlimit="10" width="108.232" height="108.231"/>
<rect x="359.92" y="336.014" fill="#FFFFFF" stroke="#454545" stroke-width="2" stroke-miterlimit="10" width="108.231" height="108.231"/>
<rect x="468.15" y="336.014" fill="#FFFFFF" stroke="#454545" stroke-width="2" stroke-miterlimit="10" width="108.23" height="108.231"/>
<rect x="35.229" y="444.932" fill="#FFFFFF" stroke="#454545" stroke-width="2" stroke-miterlimit="10" width="108.231" height="108.232"/>
<rect x="143.459" y="444.932" fill="#FFFFFF" stroke="#454545" stroke-width="2" stroke-miterlimit="10" width="108.23" height="108.232"/>
<rect x="251.457" y="445.159" fill="#FFFFFF" stroke="#454545" stroke-width="2" stroke-miterlimit="10" width="108.232" height="108.231"/>
<rect x="359.92" y="444.932" fill="#FFFFFF" stroke="#454545" stroke-width="2" stroke-miterlimit="10" width="108.231" height="108.232"/>
<rect x="468.15" y="444.932" fill="#FFFFFF" stroke="#454545" stroke-width="2" stroke-miterlimit="10" width="108.23" height="108.232"/>
<rect x="35.229" y="553.851" fill="#FFFFFF" stroke="#454545" stroke-width="2" stroke-miterlimit="10" width="108.231" height="108.231"/>
<rect x="143.459" y="553.851" fill="#FFFFFF" stroke="#454545" stroke-width="2" stroke-miterlimit="10" width="108.23" height="108.231"/>
<rect x="251.689" y="553.851" fill="#FFFFFF" stroke="#454545" stroke-width="2" stroke-miterlimit="10" width="108.232" height="108.231"/>
<rect x="359.92" y="553.851" fill="#FFFFFF" stroke="#454545" stroke-width="2" stroke-miterlimit="10" width="108.231" height="108.231"/>
<rect x="468.15" y="553.851" fill="#FFFFFF" stroke="#454545" stroke-width="2" stroke-miterlimit="10" width="108.23" height="108.231"/>
<rect x="35.229" y="662.769" fill="#FFFFFF" stroke="#454545" stroke-width="2" stroke-miterlimit="10" width="108.231" height="108.231"/>
<rect x="143.459" y="662.769" fill="#FFFFFF" stroke="#454545" stroke-width="2" stroke-miterlimit="10" width="108.23" height="108.231"/>
<rect x="251.689" y="662.769" fill="#FFFFFF" stroke="#454545" stroke-width="2" stroke-miterlimit="10" width="108.232" height="108.231"/>
<rect x="359.92" y="662.769" fill="#FFFFFF" stroke="#454545" stroke-width="2" stroke-miterlimit="10" width="108.231" height="108.231"/>
<rect x="468.15" y="662.769" fill="#FFFFFF" stroke="#454545" stroke-width="2" stroke-miterlimit="10" width="108.23" height="108.231"/>
<polygon fill="#1B3F71" points="305.574,458.284 318.893,485.271 348.676,489.599 327.125,510.605 332.212,540.268 305.574,526.264 
	278.936,540.268 284.022,510.605 262.472,489.599 292.255,485.271 "/>
</svg>
